<svg width="245" height="39" viewBox="0 0 245 39" fill="none" xmlns="http://www.w3.org/2000/svg">
  <g filter="url(#filter0_d_270_4751)">
    <path d="M7.81538 23.776H14.9834V28H2.34338V5.536H7.81538V23.776ZM31.5774 24.032H23.1934L21.8494 28H16.1214L24.2494 5.536H30.5854L38.7134 28H32.9214L31.5774 24.032ZM30.1694 19.808L27.3854 11.584L24.6334 19.808H30.1694ZM54.7871 16.48C56.0885 16.7573 57.1338 17.408 57.9231 18.432C58.7125 19.4347 59.1071 20.5867 59.1071 21.888C59.1071 23.7653 58.4458 25.2587 57.1231 26.368C55.8218 27.456 53.9978 28 51.6511 28H41.1871V5.536H51.2991C53.5818 5.536 55.3631 6.05867 56.6431 7.104C57.9445 8.14933 58.5951 9.568 58.5951 11.36C58.5951 12.6827 58.2431 13.7813 57.5391 14.656C56.8565 15.5307 55.9391 16.1387 54.7871 16.48ZM46.6591 14.624H50.2431C51.1391 14.624 51.8218 14.432 52.2911 14.048C52.7818 13.6427 53.0271 13.056 53.0271 12.288C53.0271 11.52 52.7818 10.9333 52.2911 10.528C51.8218 10.1227 51.1391 9.92 50.2431 9.92H46.6591V14.624ZM50.6911 23.584C51.6085 23.584 52.3125 23.3813 52.8031 22.976C53.3151 22.5493 53.5711 21.9413 53.5711 21.152C53.5711 20.3627 53.3045 19.744 52.7711 19.296C52.2591 18.848 51.5445 18.624 50.6271 18.624H46.6591V23.584H50.6911ZM89.1581 28H83.6861L74.5341 14.144V28H69.0621V5.536H74.5341L83.6861 19.456V5.536H89.1581V28ZM101.253 28.256C99.5033 28.256 97.9246 27.8827 96.5166 27.136C95.13 26.3893 94.0313 25.3227 93.2206 23.936C92.4313 22.5493 92.0366 20.928 92.0366 19.072C92.0366 17.2373 92.442 15.6267 93.2526 14.24C94.0633 12.832 95.1726 11.7547 96.5806 11.008C97.9886 10.2613 99.5673 9.888 101.317 9.888C103.066 9.888 104.645 10.2613 106.053 11.008C107.461 11.7547 108.57 12.832 109.381 14.24C110.191 15.6267 110.597 17.2373 110.597 19.072C110.597 20.9067 110.181 22.528 109.349 23.936C108.538 25.3227 107.418 26.3893 105.989 27.136C104.581 27.8827 103.002 28.256 101.253 28.256ZM101.253 23.52C102.298 23.52 103.183 23.136 103.909 22.368C104.655 21.6 105.029 20.5013 105.029 19.072C105.029 17.6427 104.666 16.544 103.941 15.776C103.237 15.008 102.362 14.624 101.317 14.624C100.25 14.624 99.3646 15.008 98.6606 15.776C97.9566 16.5227 97.6046 17.6213 97.6046 19.072C97.6046 20.5013 97.946 21.6 98.6286 22.368C99.3326 23.136 100.207 23.52 101.253 23.52ZM123.452 23.36V28H120.668C118.684 28 117.137 27.52 116.028 26.56C114.918 25.5787 114.364 23.9893 114.364 21.792V14.688H112.188V10.144H114.364V5.792H119.836V10.144H123.42V14.688H119.836V21.856C119.836 22.3893 119.964 22.7733 120.22 23.008C120.476 23.2427 120.902 23.36 121.5 23.36H123.452ZM143.332 18.784C143.332 19.296 143.3 19.8293 143.236 20.384H130.852C130.937 21.4933 131.289 22.3467 131.908 22.944C132.548 23.52 133.326 23.808 134.244 23.808C135.609 23.808 136.558 23.232 137.092 22.08H142.916C142.617 23.2533 142.073 24.3093 141.284 25.248C140.516 26.1867 139.545 26.9227 138.372 27.456C137.198 27.9893 135.886 28.256 134.436 28.256C132.686 28.256 131.129 27.8827 129.764 27.136C128.398 26.3893 127.332 25.3227 126.564 23.936C125.796 22.5493 125.412 20.928 125.412 19.072C125.412 17.216 125.785 15.5947 126.532 14.208C127.3 12.8213 128.366 11.7547 129.732 11.008C131.097 10.2613 132.665 9.888 134.436 9.888C136.164 9.888 137.7 10.2507 139.044 10.976C140.388 11.7013 141.433 12.736 142.18 14.08C142.948 15.424 143.332 16.992 143.332 18.784ZM137.732 17.344C137.732 16.4053 137.412 15.6587 136.772 15.104C136.132 14.5493 135.332 14.272 134.372 14.272C133.454 14.272 132.676 14.5387 132.036 15.072C131.417 15.6053 131.033 16.3627 130.884 17.344H137.732ZM166.6 16.48C167.901 16.7573 168.946 17.408 169.736 18.432C170.525 19.4347 170.92 20.5867 170.92 21.888C170.92 23.7653 170.258 25.2587 168.936 26.368C167.634 27.456 165.81 28 163.464 28H153V5.536H163.112C165.394 5.536 167.176 6.05867 168.456 7.104C169.757 8.14933 170.408 9.568 170.408 11.36C170.408 12.6827 170.056 13.7813 169.352 14.656C168.669 15.5307 167.752 16.1387 166.6 16.48ZM158.472 14.624H162.056C162.952 14.624 163.634 14.432 164.104 14.048C164.594 13.6427 164.84 13.056 164.84 12.288C164.84 11.52 164.594 10.9333 164.104 10.528C163.634 10.1227 162.952 9.92 162.056 9.92H158.472V14.624ZM162.504 23.584C163.421 23.584 164.125 23.3813 164.616 22.976C165.128 22.5493 165.384 21.9413 165.384 21.152C165.384 20.3627 165.117 19.744 164.584 19.296C164.072 18.848 163.357 18.624 162.44 18.624H158.472V23.584H162.504ZM182.221 28.256C180.472 28.256 178.893 27.8827 177.485 27.136C176.099 26.3893 175 25.3227 174.189 23.936C173.4 22.5493 173.005 20.928 173.005 19.072C173.005 17.2373 173.411 15.6267 174.221 14.24C175.032 12.832 176.141 11.7547 177.549 11.008C178.957 10.2613 180.536 9.888 182.285 9.888C184.035 9.888 185.613 10.2613 187.021 11.008C188.429 11.7547 189.539 12.832 190.349 14.24C191.16 15.6267 191.565 17.2373 191.565 19.072C191.565 20.9067 191.149 22.528 190.317 23.936C189.507 25.3227 188.387 26.3893 186.957 27.136C185.549 27.8827 183.971 28.256 182.221 28.256ZM182.221 23.52C183.267 23.52 184.152 23.136 184.877 22.368C185.624 21.6 185.997 20.5013 185.997 19.072C185.997 17.6427 185.635 16.544 184.909 15.776C184.205 15.008 183.331 14.624 182.285 14.624C181.219 14.624 180.333 15.008 179.629 15.776C178.925 16.5227 178.573 17.6213 178.573 19.072C178.573 20.5013 178.915 21.6 179.597 22.368C180.301 23.136 181.176 23.52 182.221 23.52ZM202.596 28.256C200.847 28.256 199.268 27.8827 197.86 27.136C196.474 26.3893 195.375 25.3227 194.564 23.936C193.775 22.5493 193.38 20.928 193.38 19.072C193.38 17.2373 193.786 15.6267 194.596 14.24C195.407 12.832 196.516 11.7547 197.924 11.008C199.332 10.2613 200.911 9.888 202.66 9.888C204.41 9.888 205.988 10.2613 207.396 11.008C208.804 11.7547 209.914 12.832 210.724 14.24C211.535 15.6267 211.94 17.2373 211.94 19.072C211.94 20.9067 211.524 22.528 210.692 23.936C209.882 25.3227 208.762 26.3893 207.332 27.136C205.924 27.8827 204.346 28.256 202.596 28.256ZM202.596 23.52C203.642 23.52 204.527 23.136 205.252 22.368C205.999 21.6 206.372 20.5013 206.372 19.072C206.372 17.6427 206.01 16.544 205.284 15.776C204.58 15.008 203.706 14.624 202.66 14.624C201.594 14.624 200.708 15.008 200.004 15.776C199.3 16.5227 198.948 17.6213 198.948 19.072C198.948 20.5013 199.29 21.6 199.972 22.368C200.676 23.136 201.551 23.52 202.596 23.52ZM225.755 28L220.315 20.512V28H214.843V4.32H220.315V17.408L225.723 10.144H232.475L225.051 19.104L232.539 28H225.755Z" fill="#6D83EC"/>
  </g>
  <defs>
    <filter id="filter0_d_270_4751" x="0.143262" y="0.119946" width="244.596" height="38.336" filterUnits="userSpaceOnUse" color-interpolation-filters="sRGB">
      <feFlood flood-opacity="0" result="BackgroundImageFix"/>
      <feColorMatrix in="SourceAlpha" type="matrix" values="0 0 0 0 0 0 0 0 0 0 0 0 0 0 0 0 0 0 127 0" result="hardAlpha"/>
      <feOffset dx="5" dy="3"/>
      <feGaussianBlur stdDeviation="3.6"/>
      <feComposite in2="hardAlpha" operator="out"/>
      <feColorMatrix type="matrix" values="0 0 0 0 0.333333 0 0 0 0 0.439216 0 0 0 0 0.945098 0 0 0 0.23 0"/>
      <feBlend mode="normal" in2="BackgroundImageFix" result="effect1_dropShadow_270_4751"/>
      <feBlend mode="normal" in="SourceGraphic" in2="effect1_dropShadow_270_4751" result="shape"/>
    </filter>
  </defs>
</svg>
